<mxfile host="app.diagrams.net" modified="2021-07-16T12:16:17.115Z" agent="5.0 (Macintosh; Intel Mac OS X 10_15_7) AppleWebKit/537.36 (KHTML, like Gecko) Chrome/90.0.4430.93 Safari/537.36" etag="hHj_J4ONAxYO2HrglGzn" version="14.4.8" type="github">
  <diagram name="Page-1" id="7a6c530e-6e37-e111-ec74-82921da8cc10">
    <mxGraphModel dx="1251" dy="841" grid="1" gridSize="10" guides="1" tooltips="1" connect="1" arrows="1" fold="1" page="1" pageScale="1.5" pageWidth="1169" pageHeight="826" background="#184380" math="0" shadow="0">
      <root>
        <mxCell id="0" style=";html=1;" />
        <mxCell id="1" style=";html=1;" parent="0" />
        <mxCell id="23046e2b9bb16c14-27" value="" style="rounded=1;whiteSpace=wrap;html=1;shadow=0;strokeWidth=2;fontSize=12;align=center;arcSize=3;" parent="1" vertex="1">
          <mxGeometry x="834" y="180" width="530" height="526.5" as="geometry" />
        </mxCell>
        <mxCell id="v127-JU5_yg3SzK8Gysl-39" value="Service A" style="text;html=1;strokeColor=#6c8ebf;fillColor=#dae8fc;align=center;verticalAlign=top;whiteSpace=wrap;rounded=0;shadow=0;fontSize=10;dashed=1;" vertex="1" parent="1">
          <mxGeometry x="1010" y="195.5" width="180" height="120.5" as="geometry" />
        </mxCell>
        <mxCell id="23046e2b9bb16c14-64" value="Kubernetes network" style="rounded=1;whiteSpace=wrap;html=1;shadow=0;strokeWidth=2;fillColor=#0072BC;fontSize=12;fontColor=#FFFFFF;align=center;strokeColor=none;arcSize=3;verticalAlign=top;" parent="1" vertex="1">
          <mxGeometry x="594" y="180" width="200" height="522" as="geometry" />
        </mxCell>
        <mxCell id="v127-JU5_yg3SzK8Gysl-65" style="edgeStyle=orthogonalEdgeStyle;rounded=0;orthogonalLoop=1;jettySize=auto;html=1;exitX=0;exitY=0.5;exitDx=0;exitDy=0;entryX=0.005;entryY=0.63;entryDx=0;entryDy=0;entryPerimeter=0;strokeWidth=4;dashed=1;strokeColor=#FFFFFF;" edge="1" parent="1" source="23046e2b9bb16c14-116" target="v127-JU5_yg3SzK8Gysl-60">
          <mxGeometry relative="1" as="geometry">
            <Array as="points">
              <mxPoint x="614" y="613" />
              <mxPoint x="614" y="270" />
            </Array>
          </mxGeometry>
        </mxCell>
        <mxCell id="23046e2b9bb16c14-116" value="&lt;span style=&quot;font-size: 13px&quot;&gt;Control plane&lt;/span&gt;" style="whiteSpace=wrap;html=1;rounded=1;shadow=0;strokeColor=none;strokeWidth=2;fillColor=#009BFF;fontSize=20;fontColor=#FFFFFF;align=center;arcSize=3;verticalAlign=top;spacingTop=4;" parent="1" vertex="1">
          <mxGeometry x="644" y="530" width="150" height="165" as="geometry" />
        </mxCell>
        <mxCell id="23046e2b9bb16c14-28" value="On-premises networks" style="rounded=1;whiteSpace=wrap;html=1;shadow=0;strokeWidth=2;fontSize=12;fontColor=#FFFFFF;align=center;strokeColor=none;arcSize=6;verticalAlign=top;fillColor=#4D4D4D;" parent="1" vertex="1">
          <mxGeometry x="436" y="180" width="134" height="521" as="geometry" />
        </mxCell>
        <mxCell id="23046e2b9bb16c14-49" value="" style="rounded=1;whiteSpace=wrap;html=1;shadow=0;strokeWidth=2;fillColor=none;fontSize=12;fontColor=#000000;align=center;strokeColor=#FFFFFF;" parent="1" vertex="1">
          <mxGeometry x="456" y="240" width="80" height="381" as="geometry" />
        </mxCell>
        <mxCell id="24964f25f45c63f1-1" value="" style="verticalLabelPosition=bottom;html=1;verticalAlign=top;strokeColor=none;fillColor=#FFFFFF;shape=mxgraph.azure.computer;rounded=0;shadow=0;fontSize=12;fontColor=#000000;align=center;" parent="1" vertex="1">
          <mxGeometry x="471" y="260" width="50" height="45" as="geometry" />
        </mxCell>
        <mxCell id="24964f25f45c63f1-2" value="" style="verticalLabelPosition=bottom;html=1;verticalAlign=top;strokeColor=none;fillColor=#FFFFFF;shape=mxgraph.azure.computer;rounded=0;shadow=0;fontSize=12;fontColor=#000000;align=center;" parent="1" vertex="1">
          <mxGeometry x="471" y="368" width="50" height="45" as="geometry" />
        </mxCell>
        <mxCell id="24964f25f45c63f1-3" value="" style="verticalLabelPosition=bottom;html=1;verticalAlign=top;strokeColor=none;fillColor=#FFFFFF;shape=mxgraph.azure.computer;rounded=0;shadow=0;fontSize=12;fontColor=#000000;align=center;" parent="1" vertex="1">
          <mxGeometry x="471" y="510" width="50" height="45" as="geometry" />
        </mxCell>
        <mxCell id="24964f25f45c63f1-4" value="Gateway" style="shadow=0;dashed=0;html=1;strokeColor=none;shape=mxgraph.mscae.enterprise.gateway;fillColor=#FFFFFF;rounded=0;fontSize=12;fontColor=#FFFFFF;align=center;labelPosition=center;verticalLabelPosition=top;verticalAlign=bottom;" parent="1" vertex="1">
          <mxGeometry x="471" y="680" width="50" height="50" as="geometry" />
        </mxCell>
        <mxCell id="23046e2b9bb16c14-69" style="edgeStyle=orthogonalEdgeStyle;html=1;startArrow=none;startFill=0;startSize=10;endArrow=none;endFill=0;endSize=10;strokeWidth=3;fontSize=11;fontColor=#FFFFFF;dashed=1;rounded=0;strokeColor=#EA6B66;" parent="1" source="23046e2b9bb16c14-62" target="23046e2b9bb16c14-63" edge="1">
          <mxGeometry relative="1" as="geometry" />
        </mxCell>
        <mxCell id="23046e2b9bb16c14-62" value="Firewall" style="shadow=0;dashed=0;html=1;strokeColor=none;labelPosition=right;verticalLabelPosition=middle;verticalAlign=middle;shape=mxgraph.office.concepts.firewall;fillColor=#FFFFFF;rounded=1;fontSize=11;fontColor=#FFFFFF;align=left;spacingLeft=5;" parent="1" vertex="1">
          <mxGeometry x="328" y="475" width="47" height="43" as="geometry" />
        </mxCell>
        <mxCell id="23046e2b9bb16c14-72" style="edgeStyle=orthogonalEdgeStyle;html=1;startArrow=none;startFill=0;startSize=10;endArrow=none;endFill=0;endSize=10;strokeWidth=3;fontSize=11;fontColor=#FFFFFF;dashed=1;rounded=0;strokeColor=#66FF66;" parent="1" source="23046e2b9bb16c14-63" target="24964f25f45c63f1-4" edge="1">
          <mxGeometry relative="1" as="geometry">
            <Array as="points">
              <mxPoint x="351" y="730" />
              <mxPoint x="496" y="730" />
            </Array>
          </mxGeometry>
        </mxCell>
        <mxCell id="23046e2b9bb16c14-63" value="&lt;div&gt;&lt;span&gt;Load&lt;/span&gt;&lt;br&gt;&lt;/div&gt;&lt;div&gt;Balancer&lt;/div&gt;" style="verticalLabelPosition=middle;html=1;verticalAlign=middle;strokeColor=none;fillColor=#FFFFFF;shape=mxgraph.azure.azure_load_balancer;rounded=1;shadow=0;dashed=1;fontSize=11;fontColor=#FFFFFF;align=left;labelPosition=right;spacingLeft=5;" parent="1" vertex="1">
          <mxGeometry x="326" y="593" width="50" height="35" as="geometry" />
        </mxCell>
        <mxCell id="23046e2b9bb16c14-81" value="A" style="text;html=1;strokeColor=none;fillColor=none;align=center;verticalAlign=middle;whiteSpace=wrap;rounded=1;shadow=0;fontSize=11;fontColor=#FFFFFF;fontStyle=1" parent="1" vertex="1">
          <mxGeometry x="436" y="673" width="20" height="20" as="geometry" />
        </mxCell>
        <mxCell id="23046e2b9bb16c14-113" value="On-prem kubernetes" style="text;strokeColor=none;fillColor=none;html=1;fontSize=24;fontStyle=1;verticalAlign=middle;align=center;rounded=0;shadow=0;fontColor=#FFFFFF;" parent="1" vertex="1">
          <mxGeometry x="120" y="40" width="1510" height="40" as="geometry" />
        </mxCell>
        <mxCell id="23046e2b9bb16c14-115" value="&lt;h1&gt;Heading&lt;/h1&gt;&lt;p&gt;Lorem ipsum dolor sit amet, consectetur adipisicing elit, sed do eiusmod tempor incididunt ut labore et dolore magna aliqua.&lt;/p&gt;" style="text;html=1;strokeColor=none;fillColor=none;spacing=5;spacingTop=-20;whiteSpace=wrap;overflow=hidden;rounded=0;shadow=0;fontSize=10;fontColor=#FFFFFF;align=left;" parent="1" vertex="1">
          <mxGeometry x="323" y="952" width="1041" height="70" as="geometry" />
        </mxCell>
        <mxCell id="v127-JU5_yg3SzK8Gysl-5" value="Istio Service&#xa;Mesh" style="shape=image;verticalLabelPosition=bottom;labelBackgroundColor=none;verticalAlign=top;aspect=fixed;imageAspect=0;image=data:image/png,iVBORw0KGgoAAAANSUhEUgAAAOEAAADhCAMAAAAJbSJIAAAAY1BMVEVGa7D///85Y6y4w9xBaK9zjL+ltNQzX6s9Za3I0eVAZ641YKs4Yqyaq9BZebf2+Pvu8feAlsXO1udce7jBy+GtutjU2+p4kMLg5fCbrNAtW6lQc7SLn8psh76RpMzn6/Rlgrv380miAAAE8klEQVR4nO2c23LaMBRFsUOwA6RAgNzaXP7/Kwu2AVuWrCMJ+1zm7Je+dbxmKZazOtPZTKfT6XQ6nU6n0+l0Op1Op9PpdDqdrrs59gOMvfnjEvsRRt768Ee4xfzwsMZ+hnGXP2TyCRc59kOMuhPhpsB+iFF3Isz+ldhPMebOhD+f2E8x5s6Emeg7sSJ8lfyTWBFmkm/9mvCwwn6O8VYTZtiPMeIawqPcW78h3Mj9dGsIs2ext/6FcCv2wrgQZjupt/6V8F2qxCth9iv01r8RPgmVeCPM/sqU2CIUGmxahEKDTZtQZrBpE8oMNm1CmcGmQygy2HQIRQabLqHEYNMlzPbybn2DUGCwMQgFBhuTUF6wMQnlBRuTUF6w6RFupd36PUJxwaZPKC3Y9AmlBRsLobBgYyEUFmxshLKCjY0wE/VdYyUUFWyshKKCjZVQVLCxE0oKNnZCScHGQSgo2DgIBQUbF6GcYOMilBNsnIRigo2TUEywcRLyDzbLffWHm5B7sJnvj5UjNyH3YFO81K+SAULewWb+p/kVaYCQd7ApngCEnIPNSSGAkHOwOSmEEPINNmeFEMKM7ZV4Vggi5BpsKoUgQq7BplIIImQabGqFMEKewaZWCCNkGWwahUBCjsGmUQgkZBhsLgqhhPyCzUUhlDDj5vCqEEzILdhcFYIJmQWbm0IwIbNgc1MIJ2QVbFoK4YSsgk1LYQAho2DTVhhAyCjYtBWGELIJNh2FIYRsgk1HYRAhk2DTVRhEyCTYdBWGEbIINobCMEIWwcZQGEbIIdiYCgMJGQQbU2EgIf1g01MYSkg+2PQUhhJSDzZ9hcGExINNX2EwIe1gY1EYTkg62FgUhhNSDjY2heGElIONTWEEId1gY1UYQUg32FgVxhBSDTZ2hTGEVIONXWEUIc1g41AYRUgz2DgUxhFSDDYuhXGEFIONS2EkIb1g41QYSUgv2DgVRhKSCzZuhbGEP8QkuhXGEhILNgMKowlpBZsBhdGEpILNkMJ4QkrBZkhhPCGhYDOoMIGQTrAZVJhASCbYDCtMICQTbIYVphASCTYehSmERIKNR2ESIYlg41OYREgi2PgUphESCDZehWmEBIKNV2EiIXqw8StMJEQPNn6FqYTIwQagMJUQOdgAFKYS4gYbiMJkQtRgA1GYTIgZbEAK0wkRgw1IYTohXrCBKbwDIVqwgSm8AyHW/2EDVLj5rt725WIbT4gUbLwKt68P31+zornOyqKY/e6ej0+v4ag4wWZI4ebMtixWedl9R8yX5Xq9KlbzM+rhHY6KEmzsCje1tx6bsQsq1CpGsOkprNhKL5v519SoRelBRQg2LYVAb8NrUNcOq9MHm/k+3pvnb65RP5cN6qZG/Jr61i8Xd/A2vK7V4+TvmnJENmMVKvav+jqdDmPziTc94O/ucbq97Xb7yRFnC9+35B33c5z8wj8tXz1vJsF7+Z4VOU7HyIvRGbcPbwXqZT+ux/fFvlij/yNwXnyMw4h4Ns3lq7szns7mekXpQ/S+Z5XG2TR3t3cOobNp7g4eyZ1Nc2keT2fzk97ZNBftkfDZNBfhEf1OD12YR5rvTd/AHhmdTXMAj+Tfm74NM/J4b/rm/F5lfDbNWb5X2Z9Nc913Ds/3pm/Xn0dBZ9NcWXz8cLvTQ1cKPJs6nU6n0+l0Op1Op9PpdDqdTqfT6cbYf0x3SiYORJjrAAAAAElFTkSuQmCC;" vertex="1" parent="1">
          <mxGeometry x="854" y="190" width="39.5" height="39.5" as="geometry" />
        </mxCell>
        <mxCell id="v127-JU5_yg3SzK8Gysl-14" value="" style="shape=mxgraph.gcp2.doubleRect;strokeColor=#dddddd;shadow=1;strokeWidth=1;labelBackgroundColor=none;" vertex="1" parent="1">
          <mxGeometry x="656" y="586" width="138" height="68" as="geometry" />
        </mxCell>
        <mxCell id="v127-JU5_yg3SzK8Gysl-15" value="&lt;font color=&quot;#000000&quot;&gt;Master nodes&lt;/font&gt;&lt;br&gt;Kubernetes" style="dashed=0;connectable=0;html=1;fillColor=#5184F3;strokeColor=none;shape=mxgraph.gcp2.kubernetes_logo;part=1;labelPosition=right;verticalLabelPosition=middle;align=left;verticalAlign=middle;spacingLeft=5;fontColor=#999999;fontSize=12;" vertex="1" parent="v127-JU5_yg3SzK8Gysl-14">
          <mxGeometry width="45" height="43.65" relative="1" as="geometry">
            <mxPoint x="5" y="7.675000000000001" as="offset" />
          </mxGeometry>
        </mxCell>
        <mxCell id="v127-JU5_yg3SzK8Gysl-17" value="&lt;font color=&quot;#ffffff&quot;&gt;&amp;nbsp; &amp;nbsp; &amp;nbsp; &amp;nbsp; &amp;nbsp; &amp;nbsp; &amp;nbsp; &amp;nbsp; &amp;nbsp; &amp;nbsp; &amp;nbsp; &amp;nbsp; &amp;nbsp; &amp;nbsp;ETCD&lt;/font&gt;" style="html=1;dashed=0;whitespace=wrap;fillColor=#2875E2;strokeColor=#ffffff;points=[[0.005,0.63,0],[0.1,0.2,0],[0.9,0.2,0],[0.5,0,0],[0.995,0.63,0],[0.72,0.99,0],[0.5,1,0],[0.28,0.99,0]];shape=mxgraph.kubernetes.icon;prIcon=etcd;labelBackgroundColor=none;" vertex="1" parent="1">
          <mxGeometry x="650" y="245" width="50" height="48" as="geometry" />
        </mxCell>
        <mxCell id="v127-JU5_yg3SzK8Gysl-42" style="rounded=0;orthogonalLoop=1;jettySize=auto;html=1;exitX=0.5;exitY=0;exitDx=0;exitDy=0;strokeColor=#66FF66;strokeWidth=4;entryX=0;entryY=0.5;entryDx=0;entryDy=0;" edge="1" parent="1" source="v127-JU5_yg3SzK8Gysl-44" target="v127-JU5_yg3SzK8Gysl-39">
          <mxGeometry relative="1" as="geometry">
            <mxPoint x="904" y="500" as="sourcePoint" />
          </mxGeometry>
        </mxCell>
        <mxCell id="v127-JU5_yg3SzK8Gysl-43" value="&lt;span id=&quot;docs-internal-guid-38ccb0ec-7fff-d057-49b9-90aa70a80cbd&quot;&gt;&lt;img width=&quot;24px;&quot; height=&quot;28px;&quot; src=&quot;https://lh5.googleusercontent.com/q_z9NNaK1Y5OegkMsRHoOPSOeVbLP3qG3mnDznequCfLp4Qsswm-vKgHANXmvxXyLa9skpXiDC1_sh1z-hWEgbhKX60Dd2GdSlop5izGY0DLGcrEL2BU0c7-zqY3evisUwbzktfeg_92vUs&quot; alt=&quot;Related image&quot;&gt;&lt;br&gt;mTLS&lt;br&gt;&lt;/span&gt;" style="edgeLabel;html=1;align=center;verticalAlign=middle;resizable=0;points=[];" vertex="1" connectable="0" parent="v127-JU5_yg3SzK8Gysl-42">
          <mxGeometry x="0.1896" y="-1" relative="1" as="geometry">
            <mxPoint x="-1" as="offset" />
          </mxGeometry>
        </mxCell>
        <mxCell id="v127-JU5_yg3SzK8Gysl-26" style="edgeStyle=orthogonalEdgeStyle;html=1;startArrow=none;startFill=0;startSize=10;endArrow=none;endFill=0;endSize=10;strokeWidth=3;fontSize=11;fontColor=#FFFFFF;dashed=1;rounded=0;entryX=0;entryY=0.5;entryDx=0;entryDy=0;strokeColor=#66FF66;" edge="1" parent="1" source="v127-JU5_yg3SzK8Gysl-12" target="v127-JU5_yg3SzK8Gysl-44">
          <mxGeometry relative="1" as="geometry">
            <Array as="points">
              <mxPoint x="634" y="448" />
              <mxPoint x="839" y="448" />
            </Array>
            <mxPoint x="510" y="680" as="sourcePoint" />
            <mxPoint x="828" y="500" as="targetPoint" />
          </mxGeometry>
        </mxCell>
        <mxCell id="v127-JU5_yg3SzK8Gysl-27" value="" style="aspect=fixed;perimeter=ellipsePerimeter;html=1;align=center;shadow=0;dashed=0;spacingTop=3;image;image=img/lib/active_directory/hard_disk.svg;labelBackgroundColor=none;" vertex="1" parent="1">
          <mxGeometry x="498.96000000000004" y="300" width="37.04" height="20" as="geometry" />
        </mxCell>
        <mxCell id="v127-JU5_yg3SzK8Gysl-28" value="" style="aspect=fixed;perimeter=ellipsePerimeter;html=1;align=center;shadow=0;dashed=0;spacingTop=3;image;image=img/lib/active_directory/hard_disk.svg;labelBackgroundColor=none;" vertex="1" parent="1">
          <mxGeometry x="498.96000000000004" y="410" width="37.04" height="20" as="geometry" />
        </mxCell>
        <mxCell id="v127-JU5_yg3SzK8Gysl-29" value="" style="aspect=fixed;perimeter=ellipsePerimeter;html=1;align=center;shadow=0;dashed=0;spacingTop=3;image;image=img/lib/active_directory/hard_disk.svg;labelBackgroundColor=none;" vertex="1" parent="1">
          <mxGeometry x="498.96000000000004" y="431" width="37.04" height="20" as="geometry" />
        </mxCell>
        <mxCell id="v127-JU5_yg3SzK8Gysl-31" style="edgeStyle=orthogonalEdgeStyle;html=1;startArrow=none;startFill=0;startSize=10;endArrow=none;endFill=0;endSize=10;strokeWidth=3;fontSize=11;fontColor=#FFFFFF;dashed=1;rounded=0;entryX=0.837;entryY=1.004;entryDx=0;entryDy=0;strokeColor=#FF3333;entryPerimeter=0;exitX=0.557;exitY=0.157;exitDx=0;exitDy=0;exitPerimeter=0;" edge="1" parent="1" source="v127-JU5_yg3SzK8Gysl-81" target="v127-JU5_yg3SzK8Gysl-14">
          <mxGeometry relative="1" as="geometry">
            <mxPoint x="714" y="790" as="sourcePoint" />
            <mxPoint x="859" y="853" as="targetPoint" />
          </mxGeometry>
        </mxCell>
        <mxCell id="v127-JU5_yg3SzK8Gysl-34" value="Pod A1&lt;br&gt;&lt;br&gt;&lt;span id=&quot;docs-internal-guid-d7a5e3dc-7fff-7d3f-0c8e-9995456c0502&quot;&gt;&lt;img width=&quot;17px;&quot; height=&quot;17px;&quot; src=&quot;https://lh6.googleusercontent.com/QgyDoRjshJMnIRgDSxEangLciZeiFqslu4SBCmjm26DSoxxq7PJ99HNNXAeEXnTjfK2EePEsWX8DZZmcq2r_l9QCFXf0vYpKUTM078acHeKTvOv1hxTWzy-GaJTFM-3qp6Yyf42hXJt_18s&quot;&gt;&amp;nbsp;Side car&lt;/span&gt;" style="rounded=1;whiteSpace=wrap;html=1;shadow=0;strokeWidth=2;fillColor=none;fontSize=12;fontColor=#000000;align=center;strokeColor=#FFFFFF;verticalAlign=top;" vertex="1" parent="1">
          <mxGeometry x="1030" y="245" width="70" height="65" as="geometry" />
        </mxCell>
        <mxCell id="v127-JU5_yg3SzK8Gysl-40" value="Pod A2&lt;br&gt;&lt;br&gt;&lt;span id=&quot;docs-internal-guid-d7a5e3dc-7fff-7d3f-0c8e-9995456c0502&quot;&gt;&lt;img width=&quot;17px;&quot; height=&quot;17px;&quot; src=&quot;https://lh6.googleusercontent.com/QgyDoRjshJMnIRgDSxEangLciZeiFqslu4SBCmjm26DSoxxq7PJ99HNNXAeEXnTjfK2EePEsWX8DZZmcq2r_l9QCFXf0vYpKUTM078acHeKTvOv1hxTWzy-GaJTFM-3qp6Yyf42hXJt_18s&quot;&gt;&amp;nbsp;Side car&lt;/span&gt;" style="rounded=1;whiteSpace=wrap;html=1;shadow=0;strokeWidth=2;fillColor=none;fontSize=12;fontColor=#000000;align=center;strokeColor=#FFFFFF;verticalAlign=top;" vertex="1" parent="1">
          <mxGeometry x="1110" y="244" width="70" height="65" as="geometry" />
        </mxCell>
        <mxCell id="v127-JU5_yg3SzK8Gysl-44" value="ingress gateway&lt;br&gt;&lt;br&gt;&lt;img width=&quot;17px;&quot; height=&quot;17px;&quot; src=&quot;https://lh6.googleusercontent.com/QgyDoRjshJMnIRgDSxEangLciZeiFqslu4SBCmjm26DSoxxq7PJ99HNNXAeEXnTjfK2EePEsWX8DZZmcq2r_l9QCFXf0vYpKUTM078acHeKTvOv1hxTWzy-GaJTFM-3qp6Yyf42hXJt_18s&quot; style=&quot;font-size: 12px&quot;&gt;&lt;span style=&quot;font-size: 12px&quot;&gt;&amp;nbsp;Side car&lt;/span&gt;" style="text;html=1;strokeColor=#6c8ebf;fillColor=#dae8fc;align=center;verticalAlign=top;whiteSpace=wrap;rounded=0;shadow=0;fontSize=10;dashed=1;" vertex="1" parent="1">
          <mxGeometry x="865" y="422.25" width="100" height="65" as="geometry" />
        </mxCell>
        <mxCell id="v127-JU5_yg3SzK8Gysl-45" value="" style="text;html=1;strokeColor=#6c8ebf;fillColor=#dae8fc;align=center;verticalAlign=top;whiteSpace=wrap;rounded=0;shadow=0;fontSize=10;dashed=1;" vertex="1" parent="1">
          <mxGeometry x="1039.5" y="418" width="121" height="69.25" as="geometry" />
        </mxCell>
        <mxCell id="v127-JU5_yg3SzK8Gysl-46" style="rounded=0;orthogonalLoop=1;jettySize=auto;html=1;strokeColor=#66FF66;strokeWidth=4;entryX=0;entryY=0.5;entryDx=0;entryDy=0;exitX=1;exitY=0.5;exitDx=0;exitDy=0;" edge="1" parent="1" source="v127-JU5_yg3SzK8Gysl-44" target="v127-JU5_yg3SzK8Gysl-45">
          <mxGeometry relative="1" as="geometry">
            <mxPoint x="920" y="500" as="sourcePoint" />
            <mxPoint x="1020" y="279.7499999999998" as="targetPoint" />
          </mxGeometry>
        </mxCell>
        <mxCell id="v127-JU5_yg3SzK8Gysl-47" value="&lt;span id=&quot;docs-internal-guid-38ccb0ec-7fff-d057-49b9-90aa70a80cbd&quot;&gt;&lt;img width=&quot;24px;&quot; height=&quot;28px;&quot; src=&quot;https://lh5.googleusercontent.com/q_z9NNaK1Y5OegkMsRHoOPSOeVbLP3qG3mnDznequCfLp4Qsswm-vKgHANXmvxXyLa9skpXiDC1_sh1z-hWEgbhKX60Dd2GdSlop5izGY0DLGcrEL2BU0c7-zqY3evisUwbzktfeg_92vUs&quot; alt=&quot;Related image&quot;&gt;&lt;br&gt;mTLS&lt;br&gt;&lt;/span&gt;" style="edgeLabel;html=1;align=center;verticalAlign=middle;resizable=0;points=[];" vertex="1" connectable="0" parent="v127-JU5_yg3SzK8Gysl-46">
          <mxGeometry x="0.1896" y="-1" relative="1" as="geometry">
            <mxPoint x="-1" as="offset" />
          </mxGeometry>
        </mxCell>
        <mxCell id="v127-JU5_yg3SzK8Gysl-48" style="rounded=0;orthogonalLoop=1;jettySize=auto;html=1;strokeColor=#66FF66;strokeWidth=4;exitX=0.5;exitY=1;exitDx=0;exitDy=0;" edge="1" parent="1" source="v127-JU5_yg3SzK8Gysl-39">
          <mxGeometry relative="1" as="geometry">
            <mxPoint x="970" y="532.5" as="sourcePoint" />
            <mxPoint x="1100" y="410" as="targetPoint" />
          </mxGeometry>
        </mxCell>
        <mxCell id="v127-JU5_yg3SzK8Gysl-49" value="&lt;span id=&quot;docs-internal-guid-38ccb0ec-7fff-d057-49b9-90aa70a80cbd&quot;&gt;HTTP,gRPC,TCP&lt;br&gt;&lt;img width=&quot;24px;&quot; height=&quot;28px;&quot; src=&quot;https://lh5.googleusercontent.com/q_z9NNaK1Y5OegkMsRHoOPSOeVbLP3qG3mnDznequCfLp4Qsswm-vKgHANXmvxXyLa9skpXiDC1_sh1z-hWEgbhKX60Dd2GdSlop5izGY0DLGcrEL2BU0c7-zqY3evisUwbzktfeg_92vUs&quot; alt=&quot;Related image&quot;&gt;&lt;br&gt;mTLS&lt;br&gt;&lt;/span&gt;" style="edgeLabel;html=1;align=center;verticalAlign=middle;resizable=0;points=[];" vertex="1" connectable="0" parent="v127-JU5_yg3SzK8Gysl-48">
          <mxGeometry x="0.1896" y="-1" relative="1" as="geometry">
            <mxPoint x="-1" as="offset" />
          </mxGeometry>
        </mxCell>
        <mxCell id="v127-JU5_yg3SzK8Gysl-50" value="" style="text;html=1;strokeColor=#6c8ebf;fillColor=#dae8fc;align=center;verticalAlign=top;whiteSpace=wrap;rounded=0;shadow=0;fontSize=10;dashed=1;" vertex="1" parent="1">
          <mxGeometry x="1020" y="597.75" width="160" height="69.25" as="geometry" />
        </mxCell>
        <mxCell id="v127-JU5_yg3SzK8Gysl-51" style="rounded=0;orthogonalLoop=1;jettySize=auto;html=1;strokeColor=#66FF66;strokeWidth=4;entryX=0.25;entryY=0;entryDx=0;entryDy=0;exitX=0.5;exitY=1;exitDx=0;exitDy=0;" edge="1" parent="1" source="v127-JU5_yg3SzK8Gysl-44" target="v127-JU5_yg3SzK8Gysl-50">
          <mxGeometry relative="1" as="geometry">
            <mxPoint x="920" y="500" as="sourcePoint" />
            <mxPoint x="1020" y="279.7499999999998" as="targetPoint" />
          </mxGeometry>
        </mxCell>
        <mxCell id="v127-JU5_yg3SzK8Gysl-52" value="&lt;span id=&quot;docs-internal-guid-38ccb0ec-7fff-d057-49b9-90aa70a80cbd&quot;&gt;&lt;img width=&quot;24px;&quot; height=&quot;28px;&quot; src=&quot;https://lh5.googleusercontent.com/q_z9NNaK1Y5OegkMsRHoOPSOeVbLP3qG3mnDznequCfLp4Qsswm-vKgHANXmvxXyLa9skpXiDC1_sh1z-hWEgbhKX60Dd2GdSlop5izGY0DLGcrEL2BU0c7-zqY3evisUwbzktfeg_92vUs&quot; alt=&quot;Related image&quot;&gt;&lt;br&gt;mTLS&lt;br&gt;&lt;/span&gt;" style="edgeLabel;html=1;align=center;verticalAlign=middle;resizable=0;points=[];" vertex="1" connectable="0" parent="v127-JU5_yg3SzK8Gysl-51">
          <mxGeometry x="0.1896" y="-1" relative="1" as="geometry">
            <mxPoint x="-1" as="offset" />
          </mxGeometry>
        </mxCell>
        <mxCell id="v127-JU5_yg3SzK8Gysl-53" value="egress gateway&lt;br&gt;&lt;br&gt;&lt;img width=&quot;17px;&quot; height=&quot;17px;&quot; src=&quot;https://lh6.googleusercontent.com/QgyDoRjshJMnIRgDSxEangLciZeiFqslu4SBCmjm26DSoxxq7PJ99HNNXAeEXnTjfK2EePEsWX8DZZmcq2r_l9QCFXf0vYpKUTM078acHeKTvOv1hxTWzy-GaJTFM-3qp6Yyf42hXJt_18s&quot; style=&quot;font-size: 12px&quot;&gt;&lt;span style=&quot;font-size: 12px&quot;&gt;&amp;nbsp;Side car&lt;/span&gt;" style="text;html=1;strokeColor=#6c8ebf;fillColor=#dae8fc;align=center;verticalAlign=top;whiteSpace=wrap;rounded=0;shadow=0;fontSize=10;dashed=1;" vertex="1" parent="1">
          <mxGeometry x="1240" y="422.25" width="100" height="65" as="geometry" />
        </mxCell>
        <mxCell id="v127-JU5_yg3SzK8Gysl-54" style="rounded=0;orthogonalLoop=1;jettySize=auto;html=1;strokeColor=#66FF66;strokeWidth=4;entryX=0;entryY=0.5;entryDx=0;entryDy=0;exitX=1;exitY=0.5;exitDx=0;exitDy=0;" edge="1" parent="1" source="v127-JU5_yg3SzK8Gysl-45" target="v127-JU5_yg3SzK8Gysl-53">
          <mxGeometry relative="1" as="geometry">
            <mxPoint x="977" y="457.6199999999999" as="sourcePoint" />
            <mxPoint x="1049.5" y="457.625" as="targetPoint" />
          </mxGeometry>
        </mxCell>
        <mxCell id="v127-JU5_yg3SzK8Gysl-55" value="&lt;span id=&quot;docs-internal-guid-38ccb0ec-7fff-d057-49b9-90aa70a80cbd&quot;&gt;&lt;img width=&quot;24px;&quot; height=&quot;28px;&quot; src=&quot;https://lh5.googleusercontent.com/q_z9NNaK1Y5OegkMsRHoOPSOeVbLP3qG3mnDznequCfLp4Qsswm-vKgHANXmvxXyLa9skpXiDC1_sh1z-hWEgbhKX60Dd2GdSlop5izGY0DLGcrEL2BU0c7-zqY3evisUwbzktfeg_92vUs&quot; alt=&quot;Related image&quot;&gt;&lt;br&gt;mTLS&lt;br&gt;&lt;/span&gt;" style="edgeLabel;html=1;align=center;verticalAlign=middle;resizable=0;points=[];" vertex="1" connectable="0" parent="v127-JU5_yg3SzK8Gysl-54">
          <mxGeometry x="0.1896" y="-1" relative="1" as="geometry">
            <mxPoint x="-1" as="offset" />
          </mxGeometry>
        </mxCell>
        <mxCell id="v127-JU5_yg3SzK8Gysl-30" value="Operator" style="html=1;verticalLabelPosition=bottom;align=center;labelBackgroundColor=#ffffff;verticalAlign=top;strokeWidth=2;strokeColor=#0080F0;shadow=0;dashed=0;shape=mxgraph.ios7.icons.user;" vertex="1" parent="1">
          <mxGeometry x="710" y="750" width="30" height="30" as="geometry" />
        </mxCell>
        <mxCell id="v127-JU5_yg3SzK8Gysl-12" value="" style="shape=mxgraph.gcp2.doubleRect;strokeColor=#dddddd;shadow=1;strokeWidth=1;labelBackgroundColor=none;" vertex="1" parent="1">
          <mxGeometry x="650" y="413" width="138" height="68" as="geometry" />
        </mxCell>
        <mxCell id="v127-JU5_yg3SzK8Gysl-13" value="&lt;font color=&quot;#000000&quot;&gt;Worker nodes&lt;/font&gt;&lt;br&gt;Kubernetes" style="dashed=0;connectable=0;html=1;fillColor=#5184F3;strokeColor=none;shape=mxgraph.gcp2.kubernetes_logo;part=1;labelPosition=right;verticalLabelPosition=middle;align=left;verticalAlign=middle;spacingLeft=5;fontColor=#999999;fontSize=12;" vertex="1" parent="v127-JU5_yg3SzK8Gysl-12">
          <mxGeometry width="45" height="43.65" relative="1" as="geometry">
            <mxPoint x="5" y="7.675000000000001" as="offset" />
          </mxGeometry>
        </mxCell>
        <mxCell id="v127-JU5_yg3SzK8Gysl-58" style="edgeStyle=orthogonalEdgeStyle;html=1;startArrow=none;startFill=0;startSize=10;endArrow=none;endFill=0;endSize=10;strokeWidth=3;fontSize=11;fontColor=#FFFFFF;dashed=1;rounded=0;entryX=0;entryY=0.5;entryDx=0;entryDy=0;strokeColor=#66FF66;" edge="1" parent="1" target="v127-JU5_yg3SzK8Gysl-12">
          <mxGeometry relative="1" as="geometry">
            <Array as="points">
              <mxPoint x="496" y="710" />
              <mxPoint x="620" y="710" />
            </Array>
            <mxPoint x="496" y="680.0000000000002" as="sourcePoint" />
            <mxPoint x="825" y="454.75" as="targetPoint" />
          </mxGeometry>
        </mxCell>
        <mxCell id="v127-JU5_yg3SzK8Gysl-59" style="edgeStyle=orthogonalEdgeStyle;html=1;startArrow=none;startFill=0;startSize=10;endArrow=none;endFill=0;endSize=10;strokeWidth=3;fontSize=11;fontColor=#FFFFFF;dashed=1;rounded=0;entryX=0.5;entryY=1;entryDx=0;entryDy=0;strokeColor=#FF3333;exitX=0.5;exitY=0;exitDx=0;exitDy=0;" edge="1" parent="1" source="23046e2b9bb16c14-116" target="v127-JU5_yg3SzK8Gysl-12">
          <mxGeometry relative="1" as="geometry">
            <Array as="points">
              <mxPoint x="719" y="450" />
              <mxPoint x="719" y="450" />
            </Array>
            <mxPoint x="615.4900000000002" y="484.3599999999998" as="sourcePoint" />
            <mxPoint x="613.9960000000001" y="397.63199999999995" as="targetPoint" />
          </mxGeometry>
        </mxCell>
        <mxCell id="v127-JU5_yg3SzK8Gysl-60" value="" style="html=1;dashed=0;whitespace=wrap;fillColor=#2875E2;strokeColor=#ffffff;points=[[0.005,0.63,0],[0.1,0.2,0],[0.9,0.2,0],[0.5,0,0],[0.995,0.63,0],[0.72,0.99,0],[0.5,1,0],[0.28,0.99,0]];shape=mxgraph.kubernetes.icon;prIcon=etcd;labelBackgroundColor=none;" vertex="1" parent="1">
          <mxGeometry x="644" y="240" width="50" height="48" as="geometry" />
        </mxCell>
        <mxCell id="v127-JU5_yg3SzK8Gysl-67" style="edgeStyle=orthogonalEdgeStyle;rounded=0;orthogonalLoop=1;jettySize=auto;html=1;exitX=0;exitY=0.5;exitDx=0;exitDy=0;entryX=0;entryY=0.25;entryDx=0;entryDy=0;strokeWidth=4;dashed=1;strokeColor=#FF3333;" edge="1" parent="1" target="23046e2b9bb16c14-64">
          <mxGeometry relative="1" as="geometry">
            <mxPoint x="535.7500000000002" y="299.93" as="sourcePoint" />
            <mxPoint x="536" y="-42.329999999999984" as="targetPoint" />
            <Array as="points">
              <mxPoint x="594" y="300" />
            </Array>
          </mxGeometry>
        </mxCell>
        <mxCell id="v127-JU5_yg3SzK8Gysl-68" style="edgeStyle=orthogonalEdgeStyle;rounded=0;orthogonalLoop=1;jettySize=auto;html=1;exitX=0;exitY=0.5;exitDx=0;exitDy=0;entryX=0;entryY=0.25;entryDx=0;entryDy=0;strokeWidth=4;dashed=1;strokeColor=#FF3333;" edge="1" parent="1">
          <mxGeometry relative="1" as="geometry">
            <mxPoint x="535.7500000000002" y="425.25000000000006" as="sourcePoint" />
            <mxPoint x="594.0000000000002" y="435.82" as="targetPoint" />
            <Array as="points">
              <mxPoint x="594" y="425.32" />
            </Array>
          </mxGeometry>
        </mxCell>
        <mxCell id="v127-JU5_yg3SzK8Gysl-69" style="edgeStyle=orthogonalEdgeStyle;rounded=0;orthogonalLoop=1;jettySize=auto;html=1;exitX=0;exitY=0.5;exitDx=0;exitDy=0;entryX=0;entryY=0.25;entryDx=0;entryDy=0;strokeWidth=4;dashed=1;strokeColor=#FF3333;" edge="1" parent="1">
          <mxGeometry relative="1" as="geometry">
            <mxPoint x="535.7500000000002" y="553.1800000000001" as="sourcePoint" />
            <mxPoint x="594.0000000000002" y="563.75" as="targetPoint" />
            <Array as="points">
              <mxPoint x="594" y="553.25" />
            </Array>
          </mxGeometry>
        </mxCell>
        <mxCell id="v127-JU5_yg3SzK8Gysl-72" value="Service XYZ" style="text;html=1;strokeColor=#6c8ebf;fillColor=#dae8fc;align=center;verticalAlign=top;whiteSpace=wrap;rounded=0;shadow=0;fontSize=10;dashed=1;" vertex="1" parent="1">
          <mxGeometry x="1050" y="431" width="121" height="67.25" as="geometry" />
        </mxCell>
        <mxCell id="v127-JU5_yg3SzK8Gysl-77" style="rounded=0;orthogonalLoop=1;jettySize=auto;html=1;strokeColor=#66FF66;strokeWidth=4;" edge="1" parent="1" target="v127-JU5_yg3SzK8Gysl-50">
          <mxGeometry relative="1" as="geometry">
            <mxPoint x="1100" y="500" as="sourcePoint" />
            <mxPoint x="1110" y="420" as="targetPoint" />
          </mxGeometry>
        </mxCell>
        <mxCell id="v127-JU5_yg3SzK8Gysl-78" value="&lt;span id=&quot;docs-internal-guid-38ccb0ec-7fff-d057-49b9-90aa70a80cbd&quot;&gt;HTTP,gRPC,TCP&lt;br&gt;&lt;img width=&quot;24px;&quot; height=&quot;28px;&quot; src=&quot;https://lh5.googleusercontent.com/q_z9NNaK1Y5OegkMsRHoOPSOeVbLP3qG3mnDznequCfLp4Qsswm-vKgHANXmvxXyLa9skpXiDC1_sh1z-hWEgbhKX60Dd2GdSlop5izGY0DLGcrEL2BU0c7-zqY3evisUwbzktfeg_92vUs&quot; alt=&quot;Related image&quot;&gt;&lt;br&gt;mTLS&lt;br&gt;&lt;/span&gt;" style="edgeLabel;html=1;align=center;verticalAlign=middle;resizable=0;points=[];" vertex="1" connectable="0" parent="v127-JU5_yg3SzK8Gysl-77">
          <mxGeometry x="0.1896" y="-1" relative="1" as="geometry">
            <mxPoint x="-1" as="offset" />
          </mxGeometry>
        </mxCell>
        <mxCell id="v127-JU5_yg3SzK8Gysl-80" value="Thirdparty service" style="text;html=1;strokeColor=#6c8ebf;fillColor=#dae8fc;align=center;verticalAlign=top;whiteSpace=wrap;rounded=0;shadow=0;fontSize=10;dashed=1;" vertex="1" parent="1">
          <mxGeometry x="1030" y="607.75" width="160" height="69.25" as="geometry" />
        </mxCell>
        <mxCell id="v127-JU5_yg3SzK8Gysl-81" value="" style="html=1;strokeWidth=1;shadow=0;dashed=0;shape=mxgraph.ios7.misc.vpn;fillColor=#007AFF;strokeColor=none;buttonText=;strokeColor2=#222222;fontColor=#222222;fontSize=8;verticalLabelPosition=bottom;verticalAlign=top;align=center;labelBackgroundColor=none;" vertex="1" parent="1">
          <mxGeometry x="730" y="687.5" width="40" height="35" as="geometry" />
        </mxCell>
        <mxCell id="v127-JU5_yg3SzK8Gysl-83" style="edgeStyle=orthogonalEdgeStyle;html=1;startArrow=none;startFill=0;startSize=10;endArrow=none;endFill=0;endSize=10;strokeWidth=3;fontSize=11;fontColor=#FFFFFF;dashed=1;rounded=0;entryX=0.5;entryY=1.004;entryDx=0;entryDy=0;strokeColor=#FF3333;entryPerimeter=0;exitX=0.557;exitY=0.157;exitDx=0;exitDy=0;exitPerimeter=0;" edge="1" parent="1" source="v127-JU5_yg3SzK8Gysl-30" target="v127-JU5_yg3SzK8Gysl-81">
          <mxGeometry relative="1" as="geometry">
            <mxPoint x="726.7099999999998" y="754.7099999999998" as="sourcePoint" />
            <mxPoint x="771.5059999999999" y="654.2719999999999" as="targetPoint" />
          </mxGeometry>
        </mxCell>
      </root>
    </mxGraphModel>
  </diagram>
</mxfile>
